 <svg  version="1.0" xmlns="http://www.w3.org/2000/svg"  width="299.000000pt" height="168.000000pt" viewBox="0 0 299.000000 168.000000"  preserveAspectRatio="xMidYMid meet">  <g transform="translate(0.000000,168.000000) scale(0.100000,-0.100000)" fill="#e70d0d" stroke="none"> <path d="M0 840 l0 -840 920 0 c506 0 920 3 920 6 0 3 -17 22 -39 42 -21 20 -47 51 -57 67 -10 17 -42 57 -71 91 -29 33 -51 63 -49 65 2 2 -6 13 -17 24 -17 17 -19 18 -14 2 5 -14 3 -16 -11 -8 -9 5 -27 20 -38 34 -12 13 -76 61 -143 107 -66 45 -121 86 -121 91 0 6 5 7 12 3 7 -4 8 -3 4 5 -4 6 -13 11 -19 10 -20 -4 -66 23 -69 40 -3 13 -20 16 -110 16 -95 1 -131 6 -117 19 2 2 99 6 214 10 214 5 233 7 272 20 19 6 21 10 11 39 -6 18 -15 36 -19 42 -11 12 -11 25 -1 25 5 0 15 -18 22 -40 11 -35 17 -40 43 -40 24 0 28 -4 25 -18 -3 -10 0 -20 6 -21 6 -1 113 -4 239 -7 125 -4 227 -10 227 -15 0 -5 -27 -9 -60 -9 -38 0 -60 -4 -60 -11 0 -8 -4 -8 -12 -2 -14 10 -363 17 -379 7 -5 -3 8 -27 30 -52 21 -26 49 -68 61 -93 16 -32 38 -55 79 -82 32 -20 63 -37 69 -37 7 0 12 -6 12 -13 0 -6 15 -19 33 -26 34 -16 58 -41 51 -53 -3 -5 0 -8 6 -8 6 0 8 -10 4 -27 -5 -19 -2 -30 11 -39 10 -7 53 -47 97 -89 l78 -75 475 0 475 0 0 840 0 840 -1495 0 -1495 0 0 -840z m1197 243 c-4 -3 -7 0 -7 7 0 7 3 10 7 7 3 -4 3 -10 0 -14z m153 -50 c-1 -5 -8 -19 -16 -33 -8 -14 -13 -17 -10 -7 3 10 6 25 6 33 0 8 5 14 10 14 6 0 10 -3 10 -7z m100 -1 c0 -5 -13 -7 -30 -4 -16 2 -30 6 -30 8 0 2 14 4 30 4 17 0 30 -4 30 -8z m248 1 c-10 -2 -28 -2 -40 0 -13 2 -5 4 17 4 22 1 32 -1 23 -4z m-337 -44 c-5 -13 -10 -19 -10 -12 -1 15 10 45 15 40 3 -2 0 -15 -5 -28z m54 21 c3 -5 -1 -10 -9 -10 -8 0 -18 5 -21 10 -3 6 1 10 9 10 8 0 18 -4 21 -10z m295 -55 c0 -53 -3 -63 -15 -59 -9 4 -18 -2 -24 -17 -9 -22 -10 -20 -12 16 -2 29 -4 21 -9 -30 -6 -63 -6 -59 -7 40 0 61 2 95 4 77 3 -25 8 -32 20 -28 12 5 14 1 10 -14 -3 -13 0 -20 9 -20 10 0 14 14 14 50 0 28 2 50 5 50 3 0 5 -29 5 -65z m-253 38 c-4 -3 -7 0 -7 7 0 7 3 10 7 7 3 -4 3 -10 0 -14z m176 -252 c-13 -17 -17 32 -13 144 l4 130 6 -135 c4 -74 5 -137 3 -139z m44 262 c-4 -3 -10 -3 -14 0 -3 4 0 7 7 7 7 0 10 -3 7 -7z m-227 -53 c0 -13 -1 -13 -10 0 -8 12 -10 12 -10 -5 -1 -18 -1 -19 -11 -3 -7 13 -6 22 3 32 14 15 28 4 28 -24z m237 33 c-4 -3 -10 -3 -14 0 -3 4 0 7 7 7 7 0 10 -3 7 -7z m-272 -66 c9 -28 19 -58 21 -64 3 -7 2 -13 -3 -13 -5 0 -15 23 -22 50 -12 46 -23 61 -34 43 -2 -5 -2 -2 0 5 1 8 3 20 3 28 0 29 19 3 35 -49z m52 46 c-4 -3 -7 0 -7 7 0 7 3 10 7 7 3 -4 3 -10 0 -14z m-150 -10 c-4 -3 -7 0 -7 7 0 7 3 10 7 7 3 -4 3 -10 0 -14z m-182 -3 c3 -5 4 -10 1 -10 -3 0 -8 5 -11 10 -3 6 -4 10 -1 10 3 0 8 -4 11 -10z m376 -85 c12 -27 23 -59 24 -71 2 -11 10 -37 18 -56 14 -33 14 -37 0 -42 -20 -8 -20 -8 -27 29 -6 28 -6 28 4 6 6 -13 13 -22 15 -19 3 2 -13 56 -35 118 -53 150 -53 160 1 35z m-204 58 c-4 -3 -7 0 -7 7 0 7 3 10 7 7 3 -4 3 -10 0 -14z m38 7 c3 -5 1 -10 -4 -10 -6 0 -11 5 -11 10 0 6 2 10 4 10 3 0 8 -4 11 -10z m125 -35 c0 -5 -5 -3 -10 5 -5 8 -10 20 -10 25 0 6 5 3 10 -5 5 -8 10 -19 10 -25z m-33 8 c-4 -3 -7 0 -7 7 0 7 3 10 7 7 3 -4 3 -10 0 -14z m-280 0 c-4 -3 -10 -3 -14 0 -3 4 0 7 7 7 7 0 10 -3 7 -7z m133 -38 c-16 -47 -23 -40 -9 9 6 21 13 36 16 33 3 -3 0 -22 -7 -42z m37 28 c-4 -3 -7 0 -7 7 0 7 3 10 7 7 3 -4 3 -10 0 -14z m37 -17 c-3 -15 -8 -25 -11 -23 -2 3 -1 17 3 31 3 15 8 25 11 23 2 -3 1 -17 -3 -31z m83 -3 c-4 -3 -7 0 -7 7 0 7 3 10 7 7 3 -4 3 -10 0 -14z m-130 -10 c-4 -3 -7 0 -7 7 0 7 3 10 7 7 3 -4 3 -10 0 -14z m160 0 c-4 -3 -7 0 -7 7 0 7 3 10 7 7 3 -4 3 -10 0 -14z m-7 -24 c0 -5 -4 -9 -10 -9 -5 0 -10 7 -10 16 0 8 5 12 10 9 6 -3 10 -10 10 -16z m-163 -6 c-4 -3 -7 0 -7 7 0 7 3 10 7 7 3 -4 3 -10 0 -14z m193 -18 c0 -5 -5 -3 -10 5 -5 8 -10 20 -10 25 0 6 5 3 10 -5 5 -8 10 -19 10 -25z m347 28 c-4 -3 -10 -3 -14 0 -3 4 0 7 7 7 7 0 10 -3 7 -7z m50 0 c-4 -3 -10 -3 -14 0 -3 4 0 7 7 7 7 0 10 -3 7 -7z m-497 -26 l45 -4 -52 -1 c-45 -2 -53 1 -53 16 0 11 3 13 8 5 4 -6 28 -13 52 -16z m307 6 c-4 -3 -7 0 -7 7 0 7 3 10 7 7 3 -4 3 -10 0 -14z m150 0 c-4 -3 -10 -3 -14 0 -3 4 0 7 7 7 7 0 10 -3 7 -7z m60 1 c-3 -3 -12 -4 -19 -1 -8 3 -5 6 6 6 11 1 17 -2 13 -5z m-620 -21 c-4 -3 -7 0 -7 7 0 7 3 10 7 7 3 -4 3 -10 0 -14z m393 -19 c0 -13 5 -24 10 -24 6 0 10 -22 10 -50 l0 -50 -45 0 c-25 0 -45 4 -45 9 0 5 -10 11 -22 15 -16 4 -20 8 -12 16 14 14 44 2 44 -16 0 -9 12 -14 35 -14 33 0 35 2 34 33 l-1 32 -8 -30 c-5 -23 -8 -14 -11 42 -2 39 -1 69 4 66 4 -2 7 -15 7 -29z m-427 6 c-3 -12 -8 -19 -11 -16 -5 6 5 36 12 36 2 0 2 -9 -1 -20z m564 13 c-4 -3 -10 -3 -14 0 -3 4 0 7 7 7 7 0 10 -3 7 -7z m-422 -13 c-38 -4 -55 -7 -37 -8 17 -1 32 -5 32 -10 0 -4 -21 -5 -47 -3 -27 2 -42 6 -35 8 6 3 10 9 6 14 -3 5 28 8 73 7 l78 -2 -70 -6z m115 -25 c0 -5 -5 -3 -10 5 -5 8 -10 20 -10 25 0 6 5 3 10 -5 5 -8 10 -19 10 -25z m-395 5 c3 -5 1 -10 -4 -10 -6 0 -11 5 -11 10 0 6 2 10 4 10 3 0 8 -4 11 -10z m158 -10 c-3 -12 -8 -19 -11 -16 -5 6 5 36 12 36 2 0 2 -9 -1 -20z m212 10 c4 -6 -5 -7 -23 -4 -19 4 -32 1 -41 -10 -14 -17 -31 -21 -31 -8 0 21 83 41 95 22z m172 -67 c-2 -16 -4 -3 -4 27 0 30 2 43 4 28 2 -16 2 -40 0 -55z m-423 30 c-6 -25 -24 -56 -24 -41 0 10 22 68 26 68 2 0 1 -12 -2 -27z m90 9 c-6 -4 -17 -24 -23 -44 -11 -34 -16 -38 -44 -37 -29 2 -30 2 -5 6 18 3 30 14 39 36 15 39 30 59 38 52 3 -3 1 -9 -5 -13z m56 8 c0 -5 -9 -10 -20 -10 -11 0 -20 5 -20 10 0 6 9 10 20 10 11 0 20 -4 20 -10z m129 -60 c0 -13 -1 -13 -8 0 -5 8 -12 26 -15 40 l-7 25 15 -25 c9 -14 15 -32 15 -40z m-228 16 c-8 -18 -17 -26 -33 -25 -19 1 -20 2 -4 6 14 4 16 7 6 13 -7 4 -9 13 -5 20 6 9 9 9 16 -1 6 -11 9 -10 15 4 3 10 8 16 11 14 2 -2 -1 -16 -6 -31z m349 14 c0 -5 -5 -10 -11 -10 -5 0 -7 5 -4 10 3 6 8 10 11 10 2 0 4 -4 4 -10z m-283 -77 c-4 -3 -7 0 -7 7 0 7 3 10 7 7 3 -4 3 -10 0 -14z m460 -255 c-3 -8 -6 -5 -6 6 -1 11 2 17 5 13 3 -3 4 -12 1 -19z"/> <path d="M1322 592 l-43 -3 37 -30 c20 -16 41 -29 45 -29 5 0 23 -12 39 -27 17 -15 38 -28 46 -29 8 -1 26 -9 39 -18 53 -35 50 -16 -18 108 -17 31 -39 36 -145 28z"/> <path d="M1233 583 c4 -3 10 -3 14 0 3 4 0 7 -7 7 -7 0 -10 -3 -7 -7z"/> <path d="M1480 421 c0 -5 9 -13 21 -16 11 -4 34 -28 50 -53 l30 -47 -6 40 c-4 23 -17 49 -31 63 -25 22 -64 30 -64 13z"/> </g> </svg> 