 <svg  version="1.0" xmlns="http://www.w3.org/2000/svg"  width="96.000000pt" height="96.000000pt" viewBox="0 0 96.000000 96.000000"  preserveAspectRatio="xMidYMid meet">  <g transform="translate(0.000000,96.000000) scale(0.100000,-0.100000)" fill="#56e821" stroke="none"> <path d="M0 630 l0 -330 95 0 95 0 0 270 c0 269 0 270 23 284 18 12 55 13 207 7 245 -10 289 -28 342 -141 45 -94 17 -228 -58 -285 -40 -30 -41 -37 -14 -93 l20 -42 125 0 125 0 0 330 0 330 -480 0 -480 0 0 -330z"/> <path d="M210 473 l1 -373 80 0 80 0 -3 138 -3 137 63 -3 63 -4 67 -134 67 -134 82 0 c46 0 83 2 83 5 0 3 -18 41 -40 85 -43 86 -45 90 -31 90 5 0 29 -38 52 -85 39 -81 41 -86 25 -104 -14 -15 -32 -19 -92 -19 -72 0 -75 1 -98 31 -32 43 -90 159 -88 174 2 10 -17 13 -68 13 -52 0 -69 -3 -64 -12 4 -6 7 -48 6 -92 -2 -102 -15 -117 -103 -115 -91 2 -101 16 -97 128 l3 91 -97 0 -98 0 0 -145 0 -145 480 0 480 0 0 145 0 146 -131 -2 -132 -1 -32 61 -33 61 28 15 c74 38 120 146 100 239 -15 75 -48 117 -120 153 -29 15 -70 19 -233 23 l-197 5 0 -372z m366 215 c29 -29 41 -89 25 -130 -15 -39 -55 -55 -151 -60 l-85 -4 3 114 3 114 90 -4 c80 -4 93 -7 115 -30z"/> <path d="M390 612 c0 -104 -3 -101 103 -92 47 5 63 11 78 30 26 34 24 83 -4 116 -21 24 -32 27 -100 32 l-77 5 0 -91z"/> <path d="M390 325 c0 -24 3 -25 55 -25 58 0 63 4 41 33 -9 11 -27 17 -55 17 -37 0 -41 -2 -41 -25z"/> </g> </svg> 