 <svg  version="1.0" xmlns="http://www.w3.org/2000/svg"  width="96.000000pt" height="96.000000pt" viewBox="0 0 96.000000 96.000000"  preserveAspectRatio="xMidYMid meet">  <g transform="translate(0.000000,96.000000) scale(0.100000,-0.100000)" fill="#e82121" stroke="none"> <path d="M211 854 c-20 -15 -21 -22 -21 -284 l0 -269 -97 -4 -98 -3 100 -2 100 -2 -3 -91 c-4 -112 6 -126 97 -128 88 -2 101 13 103 115 1 44 -2 86 -6 92 -5 9 12 12 64 12 51 0 70 -3 68 -12 -2 -16 56 -132 88 -175 23 -30 26 -31 98 -31 60 0 78 4 92 19 16 18 14 23 -25 104 -23 47 -47 85 -52 85 -14 0 -12 -4 31 -90 22 -44 40 -82 40 -85 0 -3 -37 -5 -83 -5 l-82 0 -67 134 -67 134 -63 4 -63 3 3 -137 3 -138 -80 0 -80 0 -1 372 0 373 197 -5 c163 -4 204 -8 233 -23 72 -36 105 -78 120 -153 19 -93 -26 -201 -100 -239 l-28 -14 33 -63 34 -63 133 5 133 5 -127 3 -128 3 -20 41 c-27 56 -26 63 14 93 97 74 106 251 17 353 -29 33 -105 64 -170 68 -197 13 -319 12 -340 -2z m275 -521 c22 -29 17 -33 -41 -33 -52 0 -55 1 -55 25 0 23 4 25 41 25 28 0 46 -6 55 -17z"/> <path d="M368 608 l-3 -114 85 4 c96 5 136 21 151 60 16 41 4 101 -25 130 -22 23 -35 26 -115 30 l-90 4 -3 -114z m199 58 c28 -33 30 -82 4 -116 -15 -19 -31 -25 -78 -30 -106 -9 -103 -12 -103 92 l0 91 77 -5 c68 -5 79 -8 100 -32z"/> </g> </svg> 